<?xml version="1.0" encoding="UTF-8"?>
<svg width="980px" height="680px" viewBox="0 0 980 680" version="1.1" xmlns="http://www.w3.org/2000/svg" xmlns:xlink="http://www.w3.org/1999/xlink">
    <title>WW PayPal Express text</title>
    <defs>
        <rect id="path-1" x="2.84217094e-14" y="0" width="900" height="600" rx="80"></rect>
        <filter x="-6.7%" y="-10.0%" width="113.3%" height="120.0%" filterUnits="objectBoundingBox" id="filter-2">
            <feMorphology radius="2.5" operator="dilate" in="SourceAlpha" result="shadowSpreadOuter1"></feMorphology>
            <feOffset dx="0" dy="0" in="shadowSpreadOuter1" result="shadowOffsetOuter1"></feOffset>
            <feGaussianBlur stdDeviation="17.5" in="shadowOffsetOuter1" result="shadowBlurOuter1"></feGaussianBlur>
            <feColorMatrix values="0 0 0 0 0   0 0 0 0 0   0 0 0 0 0  0 0 0 0.5 0" type="matrix" in="shadowBlurOuter1"></feColorMatrix>
        </filter>
        <polygon id="path-3" points="0 0 139.190082 0 139.190082 163.400743 0 163.400743"></polygon>
    </defs>
    <g id="WW-PayPal-Express-text" stroke="none" stroke-width="1" fill="none" fill-rule="evenodd">
        <g transform="translate(40, 40)">
            <g id="Rectangle">
                <use fill="black" fill-opacity="1" filter="url(#filter-2)" xlink:href="#path-1"></use>
                <use fill="#FFC43B" fill-rule="evenodd" xlink:href="#path-1"></use>
            </g>
            <g id="Logo" transform="translate(50, 194)">
                <path d="M150.234368,48.8080141 C150.234368,75.0936055 125.97655,106.104378 89.2738662,106.104378 L53.9198873,106.104378 L52.1844912,117.05435 L43.9366442,169.767006 L2.8436283e-14,169.767006 L26.4317796,0 L97.6160282,0 C121.586186,0 140.444471,13.3597202 147.390771,31.9256286 C149.394965,37.3251625 150.356978,43.0500832 150.234368,48.8080141" id="Fill-1" fill="#002991"></path>
                <g id="Group-5" transform="translate(36.9432, 48.808)">
                    <mask id="mask-4" fill="white">
                        <use xlink:href="#path-3"></use>
                    </mask>
                    <g id="Clip-4"></g>
                    <path d="M138.61476,48.8080141 C133.771685,78.2390108 108.297202,99.808852 78.4700826,99.7381158 L53.9198873,99.7381158 L43.7008567,163.400743 L0,163.400743 L6.99345748,120.958991 L15.2460203,68.2463362 L16.9767006,57.2963644 L52.3306795,57.2963644 C88.9862054,57.2963644 113.291182,26.2855914 113.291182,0 C131.328926,9.30889081 141.845049,28.1200182 138.61476,48.8080141" id="Fill-3" fill="#60CDFF" mask="url(#mask-4)"></path>
                </g>
                <path d="M150.234368,48.8080141 C142.670305,44.8514997 133.498171,42.4417514 123.514928,42.4417514 L63.9078461,42.4417514 L53.9198873,106.104378 L89.2738662,106.104378 C125.929392,106.104378 150.234368,75.0936055 150.234368,48.8080141" id="Fill-6" fill="#008CFF"></path>
                <path d="M276.912076,88.7491969 C281.325955,88.7491969 284.658001,88.3164637 287.081307,87.4077239 C289.59116,86.4124375 291.668279,85.1142378 293.269392,83.6429449 C296.644711,80.4839923 298.332371,76.28648 298.332371,71.0071347 C298.332371,65.7277893 296.644711,61.530277 293.269392,58.3713245 C291.625006,56.8567582 289.59116,55.6451051 287.081307,54.7796387 C284.701274,53.7843523 281.325955,53.2650724 276.912076,53.2650724 L266.007199,53.2650724 L266.007199,88.7491969 L276.912076,88.7491969 Z M281.585595,24.0123063 C290.11044,24.0123063 297.380358,25.2239593 303.39535,27.6039921 C309.410342,29.9840248 314.47332,33.3160707 318.627559,37.6001296 C322.868345,42.0140085 326.200391,47.0337139 328.580423,52.7025192 C330.960456,58.3713245 332.128836,64.472863 332.128836,71.0071347 C332.128836,77.5414064 330.960456,83.6429449 328.580423,89.3117501 C326.243664,94.9286274 322.868345,100.052189 318.627559,104.41414 C314.516594,108.698199 309.410342,112.030245 303.39535,114.410277 C297.380358,116.79031 290.11044,118.001963 281.585595,118.001963 L266.007199,118.001963 L266.007199,166.294991 L233.119474,166.294991 L233.119474,24.0123063 L281.585595,24.0123063 Z M379.080391,140.633911 C384.965563,140.633911 389.768902,138.643338 393.576954,134.575646 C397.471553,130.551227 399.418853,125.401701 399.418853,119.127069 C399.418853,112.852438 397.471553,107.659639 393.576954,103.678493 C389.812175,99.6540742 384.965563,97.6202281 379.080391,97.6202281 C373.195219,97.6202281 368.305334,99.6108009 364.410735,103.678493 C360.645955,107.702912 358.785203,112.852438 358.785203,119.127069 C358.785203,125.401701 360.689229,130.5945 364.410735,134.575646 C368.305334,138.600065 373.195219,140.633911 379.080391,140.633911 L379.080391,140.633911 Z M430.013092,71.9591478 L430.013092,166.338264 L401.279605,166.338264 L401.279605,158.20288 C397.644646,161.751292 393.490407,164.434238 388.903435,166.338264 C384.27319,168.328837 379.253484,169.367397 373.887592,169.367397 C367.136954,169.367397 360.862322,168.112471 355.10697,165.602618 C349.351618,162.962945 344.331913,159.371259 340.091127,154.870834 C335.807068,150.327135 332.431749,145.04779 329.921896,139.032798 C327.541864,132.887986 326.373484,126.267168 326.373484,119.213616 C326.373484,112.160064 327.541864,105.625793 329.921896,99.6108009 C332.431749,93.4659891 335.807068,88.1000971 340.091127,83.5563982 C344.314604,79.0386633 349.425183,75.4426502 355.10697,72.9977075 C360.862322,70.3580348 367.136954,69.0165618 373.887592,69.0165618 C379.253484,69.0165618 384.27319,70.0118482 388.903435,72.0456944 C393.533681,73.9497206 397.68792,76.6326666 401.279605,80.1810791 L401.279605,72.0456944 L430.013092,72.0456944 L430.013092,71.9591478 Z M436.37427,71.9591478 L472.074761,71.9591478 L496.307822,117.223043 L496.697282,117.223043 L518.29067,71.9591478 L551.351488,71.9591478 L480.513059,214.241833 L447.625334,214.241833 L479.950506,149.158755 L436.37427,71.9591478 Z M601.288903,88.7491969 C605.702781,88.7491969 609.034827,88.3164637 611.458133,87.4077239 C613.967986,86.4124375 616.045106,85.1142378 617.646218,83.6429449 C621.021538,80.4839923 622.709197,76.28648 622.709197,71.0071347 C622.709197,65.7277893 621.021538,61.530277 617.646218,58.3713245 C616.001832,56.8567582 613.967986,55.6451051 611.458133,54.7796387 C609.078101,53.7843523 605.702781,53.2650724 601.288903,53.2650724 L590.384025,53.2650724 L590.384025,88.7491969 L601.288903,88.7491969 Z M606.005695,24.0123063 C614.530539,24.0123063 621.800457,25.2239593 627.815449,27.6039921 C633.830441,29.9840248 638.89342,33.3160707 643.047659,37.6001296 C647.288444,42.0140085 650.62049,47.0337139 653.000523,52.7025192 C655.380556,58.3713245 656.548936,64.472863 656.548936,71.0071347 C656.548936,77.5414064 655.380556,83.6429449 653.000523,89.3117501 C650.663764,94.9286274 647.288444,100.052189 643.047659,104.41414 C638.936693,108.698199 633.830441,112.030245 627.815449,114.410277 C621.800457,116.79031 614.530539,118.001963 606.005695,118.001963 L590.427299,118.001963 L590.427299,166.294991 L557.539573,166.294991 L557.539573,24.0123063 L606.005695,24.0123063 Z M704.841964,140.633911 C710.727135,140.633911 715.530474,138.643338 719.295253,134.575646 C723.189852,130.551227 725.137152,125.401701 725.137152,119.127069 C725.137152,112.852438 723.189852,107.659639 719.295253,103.678493 C715.530474,99.6540742 710.683862,97.6202281 704.841964,97.6202281 C699.000065,97.6202281 694.066906,99.6108009 690.172307,103.678493 C686.407528,107.702912 684.503502,112.852438 684.503502,119.127069 C684.503502,125.401701 686.407528,130.5945 690.172307,134.575646 C694.066906,138.600065 698.956792,140.633911 704.841964,140.633911 L704.841964,140.633911 Z M755.774664,71.9591478 L755.774664,166.338264 L727.041178,166.338264 L727.041178,158.20288 C723.406219,161.751292 719.25198,164.434238 714.665008,166.338264 C710.034762,168.328837 705.015057,169.367397 699.649165,169.367397 C692.898527,169.367397 686.623895,168.112471 680.868543,165.602618 C675.113191,162.962945 670.093486,159.371259 665.8527,154.870834 C661.568641,150.327135 658.193322,145.04779 655.683469,139.032798 C653.303436,132.887986 652.135057,126.267168 652.135057,119.213616 C652.135057,112.160064 653.303436,105.625793 655.683469,99.6108009 C658.193322,93.4659891 661.568641,88.1000971 665.8527,83.5563982 C670.084831,79.047318 675.19541,75.4556322 680.868543,72.9977075 C686.623895,70.3580348 692.898527,69.0165618 699.649165,69.0165618 C705.015057,69.0165618 710.034762,70.0118482 714.665008,72.0456944 C719.295253,73.9497206 723.449492,76.6326666 727.041178,80.1810791 L727.041178,72.0456944 L755.774664,72.0456944 L755.774664,71.9591478 Z M767.674828,166.078624 L800,166.078624 L800,24.0123063 L767.674828,24.0123063 L767.674828,166.078624 Z" id="Fill-1" fill="#000000"></path>
            </g>
        </g>
    </g>
</svg>